<?xml version="1.0" encoding="utf-8"?>
<!-- Generator: Adobe Illustrator 25.2.1, SVG Export Plug-In . SVG Version: 6.00 Build 0)  -->
<svg version="1.1" id="Layer_1" xmlns="http://www.w3.org/2000/svg" xmlns:xlink="http://www.w3.org/1999/xlink" x="0px" y="0px"
	 viewBox="0 0 500 500" style="enable-background:new 0 0 500 500;" xml:space="preserve">
<style type="text/css">
	.st0{fill:#A1A4A1;}
	.st1{fill:#929592;}
	.st2{fill:#9B9E9B;}
	.st3{fill-rule:evenodd;clip-rule:evenodd;fill:#FFFFFF;}
	.st4{fill-rule:evenodd;clip-rule:evenodd;fill:#929592;}
	.st5{fill:#A8ABA8;}
</style>
<g>
	<g>
		<g>
			<path class="st0" d="M310.2,281.65H186.77c1.5,13.78,7.83,43.4-9,65.51l6.29,45.07c17.69,5.13,41.61,8.05,64.43,7.15
				c22.82,0.9,46.74-2.01,64.43-7.15l6.29-45.07C302.37,325.05,308.7,295.43,310.2,281.65z"/>
			<path class="st1" d="M248.57,350.23c23.5,0,50.04-30.37,59.32-55.62c-0.19-11.46,1.67-14.21,2.4-20.89H186.85
				c0.73,6.68,2.59,9.42,2.4,20.89C198.53,319.87,225.07,350.23,248.57,350.23z"/>
		</g>
		<g>
			<path class="st1" d="M408.86,371.52c-13.14-6.89-70.98-31.97-70.98-31.97s-5.26-8.77-7.02-12.18c-4.16-8.04-11.91-9.5-23.12-10.3
				c0,6.75,0,12.64,2.27,19.48c-6.83,17.91-35.07,33.29-57.62,38.78c-0.91,0.22-3.21,0.48-3.4,0.49c-0.4,0.02-1.97-0.25-2.98-0.49
				c-22.55-5.49-51.85-21.46-58.68-39.37c2.28-6.83,0.72-11.87,2.34-18.94c-11.21,0.79-19.33,2.3-23.49,10.34
				c-1.76,3.41-5.65,12.18-5.65,12.18s-56.46,25.2-69.4,31.97c-36.78,19.27-46.39,35.04-49.26,119.21l208.23,0.09l208-0.09
				C455.25,406.56,445.64,390.8,408.86,371.52z"/>
			<path class="st2" d="M408.86,377.26c-13.14-6.89-75.08-31.97-75.08-31.97s-3.89-8.5-5.65-11.91c-4.16-8.04-4.72-9.57-15.93-10.36
				c1.61,7.07,1.72,7.4,4,14.23c-6.83,17.91-41.24,38.33-63.8,43.83c-0.91,0.22-3.21,0.48-3.4,0.49c-0.4,0.02-1.97-0.25-2.98-0.49
				c-22.55-5.49-59.15-25.92-65.98-43.83c2.28-6.83,2.38-7.16,4-14.23c-11.21,0.79-9.59,2.32-13.74,10.36
				c-1.76,3.41-5.65,11.91-5.65,11.91s-60.57,25.2-73.5,31.97c-36.78,19.27-47.21,38.59-50.08,122.77l209.05,0.09l208.82-0.09
				C456.07,415.86,445.64,396.54,408.86,377.26z"/>
			<g>
				<polygon class="st3" points="232.07,448.39 230.52,499.97 268.04,499.97 266.63,448.25 257.35,416.22 270.45,391.57 
					260.18,378.2 237.73,378.2 227.49,391.58 240.61,416.27 				"/>
				<g>
					<polygon class="st4" points="227.76,391.79 207.09,413.12 232.59,400.88 					"/>
					<polygon class="st4" points="270.09,391.06 290.77,412.39 265.26,400.15 					"/>
				</g>
			</g>
		</g>
	</g>
	<g>
		<path class="st5" d="M321.49,210.46c0.86-0.86,5.47-36.5,5.08-52.98c-0.43-17.79-2.96-33.42-15.76-45.48
			c-9.4-8.85-24.21-15.6-36.95-19.74c-2.71-0.88-14.6-2.99-26.19-2.96c-10.82,0.03-21.36,2.14-23.89,2.96
			c-12.74,4.13-24.92,10.35-34.32,19.2c-12.81,12.06-17.96,28.23-18.39,46.02c-0.4,16.48,4.47,52.93,4.47,52.93
			c-14.75-13.13-12.23-2.87-12.23,13.26c0,11.82,3.84,21.19,7.24,28.51c2.26,4.88,2.2,11.9,8.92,12.18c2.53,0.1,4.17-1.97,4.17-1.97
			s1.09,14.47,1.67,19.14c2.3,18.72,39.08,52.99,47.26,53.5c2.59,0.16,31.21,0.16,33.8,0c8.18-0.51,43.67-34.78,45.97-53.5
			c0.58-4.67,1.67-19.14,1.67-19.14s1.64,2.07,4.17,1.97c6.72-0.27,6.91-7.3,9.18-12.18c3.4-7.32,6.73-16.69,6.72-28.51
			C334.08,207.54,335.46,196.5,321.49,210.46z"/>
		<path class="st1" d="M337.79,148.92c-0.74-8.17,1.5-30.77-15.7-37.58c-0.36-0.55-1.04-0.96-1.09-1.59
			c-0.44-6.24-1.8-9.49-4.11-13.13c-2.75-4.35-7.93-10.16-11.75-13.31c-18.07-14.88-39.86-23.92-78.13-16.48
			c-17.33,3.37-27.64-0.53-27.65-8.84c-1.87,1.09-21.67,10.94-27.29,28.66c4.41-20.36,14.59-20.01,19.23-24.35
			c-24.5,9.23-32.98,32.7-26.91,45.64c0.2,0.4,0.42,0.8,0.64,1.2c-0.23-0.38-0.44-0.78-0.64-1.2c-5.95-11.57-3.53-18.92-0.66-25.53
			c-7.23,11.64-12.6,32.59-4.75,44.66c-2.97,4.45-3.66,9.73-1.7,19.28l2.55-5.37c-0.23,8.14,0.37,20.84,0.42,22.02
			c0.33,7.32,1.93,21.05,1.58,27.9c1.01-0.56,1.49-2.87,2.57-2.57c0,0.31-0.01,0.63-0.03,0.95c-0.28,5.39-2.65,12.49-0.03,17.07
			c0.41-0.6,0.18-1.98,1.19-1.87c0.58,4.05,1.93,7.18,3.61,9.93c1.57,2.58,4.78,6.57,10,16.2c0.27,0.5-2.01-12.76-2.54-20.53
			c-0.38-5.52,0.47-11.11-0.14-17.55c-0.34-3.61-0.96-10.73-0.91-14.9c0.29-27.06,8.28-30.78,8.28-30.78s17.81,19.05,62.77-3.01
			c54.24-26.62,59.7-6.07,59.7-6.07s4.78,7.28,8.43,13.69c1.84,3.24,9.36,11.95,8.08,31.89c-0.26,4.15-1.06,6.2-1.42,9.73
			c-0.6,5.97-1.26,10.63-1.04,17.31c0.4,11.8-0.41,13.97-1.01,20.95c5.62-10.83,7.79-13.84,9.34-16.46
			c1.65-2.79,2.98-5.96,3.79-9.76c0.88,0.05,0.47,1.63,1.18,1.88c2.62-5.52-0.57-13.16,0.06-18.25c1.03,0.65,1.39,2.09,2.35,2.82
			c-0.38-7.02,1.21-20.8,1.67-28.31C338.06,158.36,338.21,153.51,337.79,148.92z"/>
	</g>
</g>
</svg>
