<svg id="Layer_1" data-name="Layer 1" xmlns="http://www.w3.org/2000/svg" viewBox="0 0 1140.57 688.48"><defs><style>.cls-1{fill:#010102;}.cls-2{fill:#010202;}.cls-3{fill:#020203;}.cls-4{fill:#030405;}.cls-5{fill:#050607;}.cls-6{fill:#06070a;}.cls-7{fill:#0a0c10;}.cls-8{fill:#2b2d2f;}.cls-9{fill:#9bbff7;}</style></defs><path class="cls-1" d="M538.24,203.44l-.88.88c-.71,0-1.49.11-1.92-.72-.35-.67.72-2-.6-2-.89,0-1.12,1.23-1.32,2.1l-.63,2.57a8.26,8.26,0,0,0-.86,2.5c0,2.16-1.16,3.21-3,2.87s-3.29-1.5-2.13-3.84c.07-.15-.25-.49-.39-.74l-.1.16c1.2.79,1.75.26,2-1l-.05.05c2.6-1.79,2.4-4.94,3.54-7.43.28-.61-.6-.9-1.2-.51s-1.12.68-1.29,1.17c-.63,1.73-1.53,1.25-2.82.77s-2.16-2-3.69-1.09-3.42,1.27-4.51,2.9c-.59.88-1.24,1.71-1.89,2.54s-1.29.61-2,.09c-.47-.35-1.2-.87-.64-1.39,1.73-1.63,1-4.48,3.29-5.9s2.48-4.05,3.54-6.2a1.56,1.56,0,0,0,.38-.39c.74-.42,1.47-.83,0-1.28a1.38,1.38,0,0,0-1.25.88c-2.08.67-2.08,3.55-4.32,4l-.22-1.34c-1.12-3,1.85-4.15,2.91-6.17.66-.26,1.59-.77,1.29-1.34s-1,0-1.25.62c-.44-.29-1.54-.38-1-1.07,1.49-2,2.84-4.24,5.8-4.58,2-.23,3.71-.92,3.53-3.71a2.44,2.44,0,0,1,3.45-2.28c2.12.82,3.76.2,5.64-.47,4.12-1.46,8.37-2.43,12.34-4.46,2.21-1.12,3.89-2.11,4.56-4.48.33-1.15,1.14-1.66,1.86-.6,1,1.55,2.73,1,4,1.55,2.76,1.23,4,.38,4.38-2.47a1.74,1.74,0,0,0-.78-2c-1.19-.58-.86.81-1.31,1.22-1,.84-1.4,1.94-2.34-.27-.76-1.79-2-3-1-5.29.59-1.39-.35-3.46-.7-5.21-.17-.88-.68-1.71-.83-2.59a10,10,0,0,1,.08-2.25c.61.43,1.21.85,1.81,1.29,1.16.86,2,3.2,3.84.73,1.42-1.88,1.45-3-.81-3.72-3.06-1-3.9-2.78-3.41-5.62a2.36,2.36,0,0,0-1.66-2.86c-1.28-.43-1.89-1.14-1.38-2.32a2.14,2.14,0,0,1,3-1.27,5.54,5.54,0,0,0,4.81-.21c1.63-.83,3.44-1.19,3.22-3.63-.05-.62.52-1.06,1.23-1,.52,0,.71.39.94.8,5.89,10.88,15.53,17.09,26.71,21.36a5.13,5.13,0,0,0,1.73.52c8.16-.07,16.46,1.12,24.3-2.26,5.83-2.51,11.63-1.47,17.38.06,2.92.77,5.71,2,8.55,3.09A45.71,45.71,0,0,0,666.3,155l-.13.28.14,27.3c-1.2,2.87-2.46,5.72-3.56,8.63-.26.71-.57,1.87.63,2.23,1,.3,1.66-.29,2-1.26a6.26,6.26,0,0,1,.69-1.12c.06,1.36.18,2.72.18,4.08q0,27.94,0,55.88c-.81,1-2,1.1-3.16,1.38-.75.19-1.39.46-1.36,1.4-.9,1-1.08,3-3.37,1.07-1.31-1.12-3.47-.25-4.37,1.78-1.6,3.63-5,5.91-6.89,9.36a1.19,1.19,0,0,1-1.53.59c-.78-.32-.61-1-.14-1.41,1.9-1.59,1.25-3.46.67-5.32a19,19,0,0,0-1.19-3.42c-.86-1.63-.2-2.87.7-4.13.42-.38.76-.84.22-1.29-.17-.13-.69.17-1.05.27a9.5,9.5,0,0,0-1.66.73c-1.39,1-2.11.54-2.62-1a13.53,13.53,0,0,0-4.07-6.43c-2.22-1.84-3-1.81-4.91.15-.43.43-.77.94-1.16,1.4-2.22,2.62-2.17,2.55-5.17.6-1.52-1-2.42-1.67-.49-3.23,1-.79,1.07-2.05-.78-1.81s-2.11-.87-2.63-2.26c-.67-1.8-.52-3.93-2.21-5.36-1-.84-1.68-1.24-2.42.15-1.14,2.13-2.29,4.25-3.47,6.35-.82,1.47-1.73,2.46-3.48.93a2.7,2.7,0,0,0-4,.21,3.68,3.68,0,0,1-3.77,1,38,38,0,0,1-4.95-2.15c-.42-.21-.21-.8,0-1.19.66-1.18,1.33-2.35,2-3.53.66-.63,1.45-1.19,1.47-2.25.53-.06,1.15,0,1-.88a2.38,2.38,0,0,0,.82.11,1.14,1.14,0,0,0,1-1.22.49.49,0,0,0-.2-.37c-.72-.33-.94.35-1.3.7-.18.18-.21.51-.31.77-.55.08-1,.23-.88.95a2.43,2.43,0,0,0-3,.72c-.69.28-1.66.36-2,.87-1.73,2.41-4.06,2.28-6.54,1.82-3.16-.58-4-1.92-3.26-5.11.14-.58.41-1.13.6-1.7.13-.4.47-.89-.17-1.11a3,3,0,0,0-1.32-.11,1.71,1.71,0,0,0-1.35,1.09,2.64,2.64,0,0,1-2.85,1.74c-3-.12-4.25,1.76-5,4.29-1.27,4-2.64,8-3.92,12.07-.42,1.3-.62,2.77-1.66,3.68-1.27,1.11-2.23,3.27-4.14,2.82s-3.24-5.11-2.12-7c1.37-2.25.06-5.62,3.16-7.13.87-.41.15-1.08-.39-1.19-2.58-.51-5.14-.79-7.24,1.36-1.07,1.1-1.72,1.18-2.64-.43-1.2-2.11-6.85-4.4-9.11-3.6-4.94,1.75-7.86-2.08-11.53-3.8-.83-.39-.48-1.4.15-1.91.93-.77,2-1.72,3.23-1.47,3.44.72,5.17-1.71,7.26-3.55,0-.75-.49-.76-1-.62-1.46.29-2.08-.76-2.78-1.7.11-.64.21-1.28.31-1.92,1.8.21,3.68.74,4.11-2,.31-2.05,2.28-2.14,3.76-2.73.85-.34,1.83.39,2.63-.26a2,2,0,0,0,.77-1.07c0-.46-.51-.67-.92-.65-2.71.15-5.43-.84-8.12-.05-1.71.5-1.83-.26-1.42-1.57.24-.75.44-1.7-.27-2.06s-1.3.54-1.84,1c-.33.31-.61.68-.91,1l-.87-1c.54-2,2.57-2.87,3.63-4.49.86-1.33.47-2.22-.55-3.4s-1.11-.39-1.16.3c-.25,3.53-3.65,4.88-5.14,7.53a.81.81,0,0,1-1.18.14c-.72-.54-.3-1.14.09-1.49,2.23-2,3-4.78,3.7-7.53.64-.31.9-1,.5-1.42-.69-.73-.8.42-1.23.62C538.46,202.8,538.38,203.18,538.24,203.44Zm33.52-58.07c-.47-1-1.7-1.06-2.41-1.8-.42-.44-.77-1.5-1.6-.62-.59.62-.17,1.34.23,2,.74,1.23,1.9,1.19,3.09,1.11.1,1.36.16,2.73.3,4.08s1.28,1,2.08,1.2c.5.14,1.31.75,1.29-.18-.06-1.91,1.27-2.54,2.46-3.45a1.06,1.06,0,0,0,.13-1.61c-.42-.46-.86-.1-1.09.19C574.11,149,573.08,146.5,571.76,145.37ZM524.92,189.6c.05-.8-.54-.73-.84-.66s-1.38-.42-1.07.66a1.33,1.33,0,0,0,1,.73C524.34,190.32,524.65,189.83,524.92,189.6Zm48-48.93a1,1,0,0,0-.17-1.3c-.61-.41-.69.25-.67.58a4.74,4.74,0,0,0,.39,1.21Z" transform="translate(-31 -35.2)"/><path class="cls-2" d="M396.64,52.62a3.15,3.15,0,0,0,.75,0c1.83,0,3.65.11,5.47.11l61.6,0c-.49.56-1,1.13-1.49,1.65-1,1-1.07,1.54.42,2.26,2.21,1.06,3,3.38,1.47,5-1.35,1.4-1.49,2.88-1.72,4.5-.5,3.46-1.1,6.91-1.42,10.38-.25,2.71-1.4,4.75-4,5.45-3.67,1-4.66,4-5.86,6.92-.26.63,1.88,4.26,2.32,4,1.86-.93,4.58-.94,5.3-3.13,1.13-3.48,3.91-4.46,6.8-5.24,5.87-1.59,8.1-5.87,9-11.33.32-2,.12-3.38-2.39-3.11-1.48.16-2.13-.85-2.79-1.92a8.83,8.83,0,0,1-1.32-5.61c.28-3.27,1-6.57.19-9.87l29,0a3.29,3.29,0,0,0,.7.11c.73,2.14,3.35,3.52,2.51,6.29a.58.58,0,0,0-.37.36l-1.46,2.39a1.1,1.1,0,0,0-.43.64c-.24,9.53-.78,19.08.31,28.58.37,3.28,1.69,6.44,2.45,9.68,1.63,6.93,3.28,13.92,6.74,20.16,4.4,7.94,9.19,15.66,18,19.77,1.75.82,2.94,3.64,5.18,2.75,3.21-1.27,3.74,1,4.86,2.78.63,1,.31,1.79-.82,2a27.76,27.76,0,0,0-5.56,1.94c-.33.15-.49.69-.72,1a4.06,4.06,0,0,0,1.2.44c1.2.07,2.69-.39,3.54.17,1.63,1.06,2.3,1.66,2.43-1,.1-1.75,1.9-1,3-1.18.82-.15,1.49-.43,1.71-1.24s-.34-1.35-1.13-1.65a14.55,14.55,0,0,1-1.62-.83,1.52,1.52,0,0,1-.84-1.89c.22-.74.93-.65,1.5-.6a34.5,34.5,0,0,1,5.86.71c1.19.32,2.56,1,2.51,2.8,0,1.42,0,2.64-1.74,3.23-2.61.88-3,3.64-4.31,5.61-.48.72.19.8.77,1.08,1.47.72.24,1.36-.22,2-1.17.15-.81,1.36-1.33,2-.21.25.21.84.65.86.63,0,.33-.59.41-.92s.14-.85.2-1.27c.45,0,.9,0,1.34.1,1.14.16,2.49-.48,3.35.67.67.88,0,4.51-1,5.42-2.87,2.63-5.73,5.31-9.9,5.69-.38-1,.55-2.4-.89-3.09-.21-.1-.65-.1-.75,0-1.28,1.58,1,2.07,1,3.27l-2.62,1.68c.53-1.51-.33-1.74-1.52-1.66a19.19,19.19,0,0,1-3.14-.21,1.29,1.29,0,0,0-1.73.92c-.86,2.82-1.58,1.47-2.32,0-.28-.57-.67-1.12-1.35-.75-.3.17-.42.74-.51,1.16a5.6,5.6,0,0,0-.12,1.36c0,4.3.05,4.39-4.06,5.38-3.49.85-6.74,2.81-10.52,2.32-2.61,2.57-7.2,1.74-9.24,5.57-.65,1.22-2.76.94-3.42-.39-1.15-2.32-3.18-2.58-5.24-3-3.38-.69-6.5-2.48-10.08-2.41a2.37,2.37,0,0,1-1.61-.73c-2.19-2.49-5.16-2.71-8.15-3a3.54,3.54,0,0,1-2.93-3.67.82.82,0,0,1,.89-.75c1.31,0,2.84-.64,3.77.78,1.07,1.65,2.63,1.4,4,1,.89-.24,2.31-.76,2.23-1.89-.13-1.65-1.58-.67-2.49-.82-2.4-.41-4.87-1-6.59-2.73a30.6,30.6,0,0,0-9.76-6.48c-.74-.33-1.47-.7-1.38-1.54s.83-1.11,1.69-1.13c1.46,0,2.48-1,3.55-1.85.62,0,1-.29,1-1l.79-1.09c1.14.32,2.48.06,3.38,1,1.33,1.38,2.63,1.88,4.23.4.62-.58,1.43-.13,2.15,0,.49.07.85-.05.95-.55s-.17-.6-.55-.54c-3.47.57-6.64-1.71-10.11-1.05-.06-.28-.12-.57-.19-.85.17-.42.05-.81-.37-.86a.91.91,0,0,0-1.06.86c-.66,1.27-.85,3-3.12,2.29a4.72,4.72,0,0,0-2.6.55c-1.58.57-3.15,1.58-3.53-1.31-.17-1.31-1.46-.56-2.22-.63-1.31-.12-2.45-.25-2.41-2,0-1.41.47-2.88-.47-4.18-1,1.29-.49,2.77-.52,4.18l-.08.45c-3.61-1.48-7.86-.9-11.12-3.69a74.42,74.42,0,0,0-6.37-4.35c-1.56-1.07-2.78-2-3-4.41a4.94,4.94,0,0,0-4.88-4.53,6.34,6.34,0,0,1-2.95-1.09c-2.17-1.28-4.52-1.22-6.91-1.58-4.88-.72-9.23.37-13.59,2.23-1.38.59-2.36-.24-1.77-1.45,1.29-2.67-.1-3.56-2.21-4.26-.61-.2-1.15-.35-.3-1a26.71,26.71,0,0,0,2.66-2.44c1.22-1.29,2.54-1.38,3.35.16,1.15,2.2,3.07,2.4,5,2.18s2.26-2.26,3.12-3.59a6.34,6.34,0,0,0,.61-2.61c.12-1,.26-1.79,1.52-1.76,2.08,0,3.48-1.43,4.42-2.84a4.21,4.21,0,0,1,4.2-1.92.79.79,0,0,0,1-.34l-1-.4c-2.22-2.32-4.42-3-7.48-1-2.1,1.38-2.89.7-3.6-2.17-.33-1.33-1.13-2.52-2.27-2.56-2.28-.07-2.3-1.46-2.44-3-.06-.75-.34-1.48-.47-2.22-.21-1.17-1.55-2.18-1-3.33s2-1.15,3.25-1.28A1.68,1.68,0,0,0,407,99.68a4.67,4.67,0,0,1,.66-1.69c2.4-2.87,2.43-2.86.84-5.57a36.28,36.28,0,0,1-2.3-3.93c-.83-2-1.79-2.89-4.25-2.91-3.38,0-5.41-2.53-5.2-6,.24-4-1-7.44-2.71-10.87-.26-.54-.36-1.43-.76-1.6-3.07-1.28-2.64-3.09-.9-5.13a2.52,2.52,0,0,0,.76-2.07c-.57-2.75,1.18-4.51,2.6-6.43A1.13,1.13,0,0,0,396.64,52.62Zm30.16,67.69a3.08,3.08,0,0,0,.5.67,6.25,6.25,0,0,0,.94.55.73.73,0,0,0-.37-1,1,1,0,0,0-1.15-.08c0-.41.21-.91,0-1.22-.7-1.34-1.71-2-3.3-1.3-.34.14-.42-.11,0,.2.74.48,1.45,1,2.18,1.5C426.06,119.84,426.43,120.07,426.8,120.31Zm70.51,46.74c1.45-.3,2.93-.57,3.52-2.21.05-.15-.32-.65-.4-.62a6.82,6.82,0,0,0-3.37,1.95,2.3,2.3,0,0,0-.23.37,1.31,1.31,0,0,0-.62,1.23c-2.16,1.22-5,1.08-6.65,3.34a7,7,0,0,0-1,.77c-.34.38-.91.86-.19,1.32.17.11.72-.25,1-.51a4.67,4.67,0,0,0,.66-1.05c1.75-.66,3.49-1.35,5.25-2a1.66,1.66,0,0,0,1.14-1.65C497,168,497.19,167.53,497.31,167.05ZM446.93,135c-3.37,1.29-.21,3.11-.34,4.67,0,.42.62.88.84.61.92-1.16-.64-2.13-.41-3.32.13-.67.53-1.43-.15-2.06.56.37.66.11.56-.42Zm-18.23-3.6c-.08,1,1,2.06,1.11,1.69.41-2.17,4.47-2.82,2.48-5.9-.2-.3.1-.88.08-1.33,0-.83.92-1.95-.11-2.4a4.42,4.42,0,0,0-3,.14,14.78,14.78,0,0,0-2.63,1.71c-1.31.82-2,2-1.41,3.42a2.43,2.43,0,0,0,3.33,1.41ZM477.47,145c-1,0-1.13.3-.85,1.5.74,3.17.52,3.62-2.39,4.57-1.85.6-3.73,1.12-5.56,1.78-.38.14-.46.78-.2,1.19.13.2.67.42.73.36,2-2.12,5-.22,6.78-1.54s3-1,4.56.23c.53.41,2.42.69,2.31.41-1-2.52,2.08-2.83,2.26-4.67.15-1.59-1.14-3.93-2.56-3.54A10.27,10.27,0,0,1,477.47,145Zm5.19,31.11c1-.22,2.38.43,3.64-.33a1.56,1.56,0,0,0,.74-1.06c0-.44-.55-.46-1-.44a43.37,43.37,0,0,0-5,.28c-1.17.22-3-1.36-3.13-.15-.25,2.26,2.09,1.43,3.43,1.69A10,10,0,0,0,482.66,176.1ZM455,143.57c0-.61-.05-1.25-.8-1.31a1.35,1.35,0,0,0-1.12.44c-.66,1.25-2,2.34-1.21,4,.19.39.58.76,1,.55C454.46,146.52,454.83,145.08,455,143.57Zm-7,1.15c-.91-.84-1.77-2.29-2.7-2.35-1.62-.09-1.86,1.71-2,3-.18,1.66,1.32,1.26,2.21,1.4C447.06,147,447.49,145.76,448,144.72Zm60.79,18.57-.41.54c.24.1.48.29.71.27s.29-.32.43-.49Zm-1.76-.48-.29-.16,0,.27Z" transform="translate(-31 -35.2)"/><path class="cls-3" d="M853.61,344.16l-1-4.29c-.52-.08-.78.17-.84.68a11.28,11.28,0,0,1-.16,2.68c-.36,1.23-.75,2.79-2.49,2.53a3.75,3.75,0,0,1-2.92-3.81c.21-2.22.91-4.1,3.2-5a4.39,4.39,0,0,0,1.14-.72c1.16-.94,2.16-2.36,3.48-2.75s1.1,2.34,2.74,2.4c.45,0,.89.1,1.34.15.34.65.41,1.84,1.56,1.16.43-.26.24-1-.45-1.22-.85-2-3.83-3.52-3.62-4.9a33.22,33.22,0,0,0,.85-6c0-.49.27-1.28-.54-1.38-.26,0-.73.51-.88.88-2.42,5.73-7.36,9.14-11.82,13-.9.78-1.68,1.33-2.7.29l-.63-.94c0-1.51-.08-3,0-4.52.07-2.13,0-4.34-1.82-5.67-1-.71-1.92,2.18-1.68,5.73.07,1,.16,1.73,1.4,1.76,2,0,1.07,1.74,1.43,2.71a1.92,1.92,0,0,0,.37,2.15c0,.77.79,1.82-.31,2.24-1.52.58-.72,2-1.27,2.86l-58.2,0-.25.11c.85-3.18,2.73-4.83,6.21-4.67a27.08,27.08,0,0,0,5.41-.69c1.4-.22,2.43-.6,1.13-2.31-.65-.86.15-1.69.68-2.42,1.07-1.48,2.11-3,3.15-4.46.79-.28,1.8-.76,1.62-1.53s-1.13-.43-1.72,0c-1.79.26-2.68,1.9-4.14,2.64-.62.31-1.37.88-2,.14s-.19-1.44-.09-2.16.84-1.2,1.53-1.5c1-.41,2-.73,2.91-1.19.35-.17.79-.61.79-.93s-.54-.61-1-.56c-2.15.18-4.62-.9-4.93-2.36-.39-1.91,2.48-2.47,3.94-3.6,2-1.54,4.13-1.2,6.37-.22,1.23.54,2.32,2,4,1.1,0,.21,0,.43,0,.65l.53-.22-.57-.44a3.89,3.89,0,0,0-4-3.59c-3.08-.06-5.73-2.19-8.87-1.43-1.14.27-1.7-.28-1.37-1.54.46-1.82,1-3.41,3.2-3.94,1.34-.33,1.25-1.33.17-1.28-2.62.1.35-3.25-2-2.86-1.33.21-2.65.55-4,.71-.4,0-.85-.3-1.26-.51a17.84,17.84,0,0,0-13.24-1.19c-.88.25-1.88.43-2.53-.41s.12-1.72.38-2.54a9,9,0,0,1,1.07-2c.67-1,.18-1.25-.78-1.19-.67,0-1.4-.21-1.34-.87.29-3.25-2.52-4.16-4.24-5.92a35.56,35.56,0,0,1-5.85-8.1c-2.1-3.95-4.16-4.27-6.93-.89a4.49,4.49,0,0,0-1.34,2.82c0,4.52-3.54,6.85-6.06,9.77a5.82,5.82,0,0,1-3.26,1.48c-1.35.23-2.71.09-3,1.92,0,.19-.44.34-.69.47-1.19.64-.58-2.44-2.12-1a20.34,20.34,0,0,1-2.26,2.2c-1.7,1.1-4.11,0-4.46-.86-1.14-2.79-3.86-4-5.57-6.18s-1-2.14.4-3.1a5,5,0,0,0,1-1.47c.27-.39.45-.83-.08-1.1-.15-.08-.49.21-.74.33a5.21,5.21,0,0,1-3.48-.51c-.75-.4-2.19.3-2.39-.67a2.85,2.85,0,0,1,1.5-3.09c3.15-1.26,5.9-4.61,9.94-2,1.11.71,2.36.62,2.24-1.38-.05-.92.77-1.18,1.58-1.26,1.32-.13.71-1.6,1.66-2.28,2.13-1.52,2-1.89,1.08-2.14a7.33,7.33,0,0,1-2.83-1.38c-.58-.49-1.24-.88-1.81-1.38-1.14-1,0-2,.21-2.9s1-.74,1.76-.31a3.52,3.52,0,0,0,2.56.73c1.14-.25,2.75-.41,1.54-2.21s-.63-2.52,1.27-3.07c1-.28,1.67-1.22,2.81-1.38,3.23-.47,4.46.23,6.51,4,.45.82.87,1.75,2,1.35.85-.31.71-1.25.67-2-.06-1.17.42-2.52-.66-3.45-2.34-2-1.71-4.92-1.7-7.27,0-2.65-.61-5.43.34-8.1a1.89,1.89,0,0,0-.3-1.7c-2.24-1.85-1.38-3.65-.65-6,.8-2.57,1.63-5.68-1.23-8a3.57,3.57,0,0,1-.67-1.18c-1.17-2.19-1.11-2.26,2-2.33.42.63,1.17,1.39,1.68.77.73-.88-.65-1-1-1.47-2-.32-3.12-2.53-5.52-2.33-1.3.1-2.42-3-1.22-4s1.17-1.73.94-3.09c-.45-2.76,1.25-4.5,4-4.5,1.06,0,2.12.17,3.17.13,1.68-.06,3.4-.1,3.57-2.48a2.81,2.81,0,0,1,.95-1.49c.47-.48.71-1.52,1.57-1.21.43.15.8.91.91,1.46.43,2.09,2.6,3.83,1.32,6.31a1.41,1.41,0,0,0,.35,1.23c3.08,3,4,7.41,7,10.51a3.08,3.08,0,0,1-1.38,3.34c-2.81,2.23-5.92,1-8.89,1.3,0-.42-.07-.92-.56-.29-.11.14.3.38.61.24-.09,2.11,1.27,2.88,3,3.28,1,.23,2.17.12,2.94,1,1.06,1.24,1.74,1,2.1-.51,1.18-4.81,5.16-6.11,9.19-7.36.1.06.19.17.3.18.61.05.09.63.14,0l-.54-.09c.86-1.59-.49-2.09-1.43-2.61-1.28-.7-1.75.41-2.31,1.28-1.24,1.92-1.72.43-2.31-.54.57-.71,1.43-1.33,1.65-2.14.51-1.87,1.58-2.35,3.44-2.83A22.89,22.89,0,0,0,778,218c1.74-1.18,2.7-.7,3.69.78.5.76,1.1,1.46,1.65,2.18a22,22,0,0,0,8.12,7.07c4,1.89,7.28,5,10.64,7.81,6.77,5.75,14.76,9.48,22.56,13.49,2.64,1.36,5.58,1.72,8.08-.52,1.13-1,2.1-.76,3.29-.28,2.53,1,5.08,2,7.65,2.9,2.76,1,5.58,1.78,8.37.12a1.75,1.75,0,0,1,2.39.44,4.83,4.83,0,0,0,5.06,1.17,5.15,5.15,0,0,1,3.52.42c4.51,1.79,4.51,1.75,7.36-2.12a13.31,13.31,0,0,1,1.21-1.29c.29.52.79,1,.84,1.56.58,5.32,3.05,9.73,6.19,13.94,1.14,1.52,2.19,3.36.25,5.66s-1.77,5.68-1.32,8.76c.75,5.11,1.76,10.16,1.76,15.38,0,4.93-1.13,9.65-1.84,14.45-.22,1.45-1,2.47-2.33,2.24-4.17-.71-6.5,2.5-9.56,4.17a1.81,1.81,0,0,0-1,1.46c-.39,3.77-2.37,7.26-2,11.17a3.26,3.26,0,0,1-.06,1.36c-1.54,4.59-.89,9.29-.71,14l-.36-.11Zm8.57-37.69-.72-.75c-1.36-2-3.6-3.32-4.15-5.88-.21-1-1.12-1.44-1.89-1.87a8.07,8.07,0,0,1-3.54-4.5c-1.79-4.47-6-6.24-9.93-8.18-2.44-1.22-5.13,0-7.4,1.07-2.51,1.19-4.93,2.25-7.77,2.08a2,2,0,0,0-2.24,1.15c-1.32,3.47-3.77,6.68-2.45,10.78.32,1,.79,2.51.09,3-2.88,2.1-1.28,4.44-.79,6.83.37,1.79,1.63,3.47.38,5.55-.45.76-1.31,2.83,0,3.11S823,317,823,316c.41-4.61.59-9.24.63-13.87,0-1.14.25-1.64,1.22-2a19,19,0,0,0,2.49-1.1c1.65-.9,3.35-2.44,3-4.09a2.48,2.48,0,0,1,.78-2.84c2.76-3.15,5.71-4.89,9.81-2.46a1.29,1.29,0,0,0,.89.07c2.92-.91,5.14,1.13,6.15,2.88,1.29,2.24,3.35,4,4.14,6.6,1.11,3.66,3.32,6.47,7.58,6.82.5.75,1.3.76,2.07.82.24,2.16,1.53,3.83,2.61,5.6.28.47.55,1.15,1.25.76.2-.11.17-.83.06-1.23A10.54,10.54,0,0,0,862.18,306.47Z" transform="translate(-31 -35.2)"/><path class="cls-4" d="M172.41,216.41c-.23.19-.48.57-.69.55-4.5-.38-8.78,1.75-13.3,1.17,2.06-1.39,4.42-1.62,6.8-1.78.69,0,1.6.28,1.8-.75a2.14,2.14,0,0,0-.72-2.06c-1.9-1.45-3.88-2.81-5.84-4.19a.88.88,0,0,0-1.45.37c-.51,1.08-1.44,2.15-1.07,3.36s.29,1.91-.81,3c-1.46,1.45.49,1.64,1.49,2-5.25,1.81-9.92,4.76-14.75,7.4-1,.53-1.94.7-2.33-.95a9,9,0,0,0-3.45-4.64c-.34-.29-.86-.61-.55-1a1.31,1.31,0,0,1,1.23-.36c2.87,1.44,3.94-.42,5-2.55.6-1.21,1.5-2.27,2.11-3.48a3.33,3.33,0,0,0,0-3.47c-.56-.82-1.08-2-2.32-1.93s-1.31,1.08-1.65,1.9c-.22.54-.27,1.18-.91,1.46a7,7,0,0,1-.37-1.76c.11-2.39,2.31-3.84,2.83-6.07a2.12,2.12,0,0,0,1.19-1.45c2.27-1.34,3.41,1.17,5.19,1.53,1.31.27,3,1.77,3.75,1a6.55,6.55,0,0,0,1.33-5.43,14.6,14.6,0,0,0-.85-2.57l.41-.43c4.09-1.67,4.15-1.77,3.4-5.71a4.55,4.55,0,0,0-1-2.4c2.6-2.76.43-5.71.31-8.58,0-.37-.4-1-.63-1-.68,0-.93.59-1.09,1.21-.76,2.8.8,5.57.07,8.37-.07.45-.12.9-.23,1.34-.21.83-.22,2-1.26,2-.45,0-1-1-1.43-1.59,0-.53.21-1.38-.57-1.27-.52.08-.32.92-.06,1.42.07.13.16.24.23.36.44,2.17-.66,4.17-.63,6.3a1.5,1.5,0,0,1-1.36,1.55c-1.11.2-1.07-.7-1.28-1.39a28.23,28.23,0,0,0-1.45-4.27c-.41-.87-.19-2.87-2.09-2.06-1.75.75-.44,2.07-.21,3.13a1.94,1.94,0,0,0,.62,1.17c2.29,1.58,1.72,3.06,0,4.68a12,12,0,0,0-1.49,2.22.91.91,0,0,0-.85,1c-.74-.18-1.75-.36-1.45-1.33a7.23,7.23,0,0,0-.94-6c-.83-1.47-.27-3.29-.32-4.94-.08-2.72.36-5.5-1.37-7.94-.76-1-.44-2,.51-2.77s2-1.85,3-2.76c2.63-2.36,4.15-5.14,3.52-8.8a7.18,7.18,0,0,1,1.19-5.18c3.33-5.32,3.45-11.89,6.62-17.28-.41-3.1,1.87-6.48-1.17-9.33-.75-.71-.6-2.05-.11-3.05a4.63,4.63,0,0,0-.15-3.95c.82,0,1.71-.31,1.58-1.07s-1.27-.16-1.88-.46c0-1.18.86-1.88,1.42-2.76a1.92,1.92,0,0,1,3-.65c4.31,2.81,8.65,5.61,10.1,11a7,7,0,0,0,5,5.28,21.8,21.8,0,0,1,11.27,8c1.84,2.62,4.86,4.1,6.46,6.92a1.62,1.62,0,0,0-.67.42c-.37.06-.72.17-.61.63,0,.13.37.19.58.28l0,0c-.09.57-.12,1.43.45,1.42s.45-.9.46-1.45l.44-.44c3.76,4.58,6.87,9.63,10.24,14.5a69.57,69.57,0,0,0,17.1,17.51c1.38,1,2.69,1.94,4.56,1.33,1.57-.51,3,.32,4.39.82,2.42.87,4.83,1.8,7.23,2.73,2.81,1.09,5.54,1.58,8-.78,1.07-1,2.12-.64,3.32-.08,1.91.9,4,1.48,5.88,2.39,4.28,2,8.19.88,12.08-1.14s7.71-4.24,10.7-7.59a7.85,7.85,0,0,1,7.29-2.84c4.33.6,7.31-1.69,9.55-5,1.43-2.08,3.24-4.06,3.54-6.78a1.57,1.57,0,0,1,.34-.84c3-3.27,4.6-7.45,7.29-10.93a13,13,0,0,1,1.18-1.38c.88-.87,1.9-1.83,3.15-1.53s.57,1.82,1,2.73c.85,2,1.08,4.47,3.43,5.59l-.08-.07c.28.52.44,1.37.84,1.51,3.12,1.07,5.83,3.09,9,3.9.58.15,1.23,0,1.79.2,1.95.6,2.38,2,.9,3.27-3.06,2.71-6.43,5-9.14,8.15a2.44,2.44,0,0,1-2.84.85c-2-.84-2.68.57-3.31,2-1.32,3-2.69,6.08-3.95,9.15-3,7.22-7.79,13.27-12.24,19.57a6.28,6.28,0,0,1-3.58,2.58,10.29,10.29,0,0,0-3.74,1.55c-2.66,2.2-5.5,1.89-8.47,1.12l-.07-1-.06-1.54.1-.08c1.43-.4,2.58.69,3.88.78A9,9,0,0,0,284,215l-2.55-2.41a.71.71,0,0,0-.42-.87c-.36-.47-.44-1.33-1.39-1l.07,0c.05-.1.17-.21.15-.29a3,3,0,0,0-.19-.58c-.24-1.44,1.51-2.66.36-4.27-.53-.74.17-1.49.83-1.84a5.56,5.56,0,0,0,3.18-4.05c.14-.83,1.57-1.39,1-2.26s-1.93-.89-2.93-.87a6,6,0,0,0-4.49,1.87,4.49,4.49,0,0,1-4.11,1.38c-1.37-.09-2.75.08-4.1-.08A5.41,5.41,0,0,0,264,202.2c-.86,1.18-1.6,2.81-3.35,2.8-2.32,0-3.51,1.52-4.78,3a9.58,9.58,0,0,1-3,.79c-2.25-.15-2.85,1.25-3.3,2.95a7,7,0,0,0-4.72.89c-.49-1.09.18-2.06.45-3,.34-1.26-.5-1.59-1.24-2.08a1.43,1.43,0,0,0-2.29.53c-.61,1.25-2.46,2.27-1.46,3.88s2.46.53,3.77.31c.25,0,.55.18.83.29.46,1.12,1.06,2.26,2.46,2.07,1.61-.22,1.71-1.76,2.1-3,2.36,0,4-2.35,6.49-1.93,2.42-.32,4.82-.54,6.3,2l.13-.09a19.47,19.47,0,0,0-13.87,5.64c-1.08,1-2.52,1.65-3.59.4-2-2.35-3.71-.91-5.54,0-.13.06-.2.22-.32.31-4.75,3.66-5,3.69-5.95-2.17-.58-3.5-3.55-4.18-5.64-6,1.1-2.59,1.09-2.58,2.94-1.38.34.21,1.11.42,1.16.32a3.33,3.33,0,0,0,.11-3.78c-.54-.77-1.05-2.51-2.64-.88-.7.72-2.14.46-2-.46.6-3.59-1.46-1.89-2.74-1.48s-1.76,1.46-.29,2.11c2.58,1.13,3.21,2.94,2.54,5.47-8,.16-11.53,3.39-12.69,11.56-.08.6,0,1.17-.73,1.46-2.19.85-2.34,1.81-.13,2.89.78.38.42,1,.23,1.55-.33,1-.63,2-1,3-1.07,2.87-1.09,2.84-4.69,3.1-2.39.18-4.75-.08-7.12,1-2.83,1.33-3.35.83-4.47-2.29a3.43,3.43,0,0,1-.42-2.17c1.43-1.62,3.06,1.45,3.87.15s.56-3.21.73-4.86a8.39,8.39,0,0,1,1.59-3.75c1.32-2,1.71-3.73-.33-5.64a10.54,10.54,0,0,1-1.93-3.58c-.26-.62,2.26-.52.6-1.73s-3-3-5.18-3.62c-1.86-.52-3.16-1.47-2.72-3.88.27-1.52-.3-3.42-2.14-3.4-3.36.05-6.54-1.49-9.93-.84a5.37,5.37,0,0,1-5.62-2.13,7.86,7.86,0,0,0-7.56-3.14c-1.89.18-2.45.21-1.76,2.13.45,1.27.48,2.54,2,3.33a4.84,4.84,0,0,1,2.37,4.17c0,2.81,1.53,4.44,3.21,6.18.58.6,1.63,1,1.11,2.18l-1.19.4a8.36,8.36,0,0,0-1.48-1.06c-4.57-2-7.17-5.47-7-10.56,0-1.27-1-1.28-1.27-2-.66-2.11-2.53-1-3.31-.75-1.6.55-.16,1.67.19,2.51,1.05,2.53,3.05,4.59,4.1,7,1.48,3.38,4,5,7,6.32C171,214.62,172.57,215.09,172.41,216.41Zm-12-44.95c.34,2.22.35,4.58,2.32,6.2.56.47,1.61.19,1.54-.06-1-3.88,2.39-3.78,4.36-4.91.73-.42,1.3-.84,1.1-1.71a8.14,8.14,0,0,1,1-6.1c.47-.82.05-1.42-.92-1.51a16.05,16.05,0,0,0-4-.3c-.84.13-2,.68-1.51,2.2.43,1.3-.41,1.57-1.49,1.35-1.38-.28-2,.37-2.08,1.66C160.66,169.34,160.51,170.39,160.39,171.46Zm-12.23,44.2c0,.71-.22,1.5.36,1.67.29.08.93-.63,1.25-1.08.87-1.21,1.67-2.46,2.45-3.72.4-.64-.09-1.16-.46-1.58-.52-.6-1.06-.24-1.44.23C149.22,212.55,147.7,213.73,148.16,215.66Z" transform="translate(-31 -35.2)"/><path class="cls-2" d="M730.39,228.75c.24,1.44,1.15,2.71.94,4.3-.24,1.86,0,3.68,1.7,4.89,2,1.36-.3,3.13.47,4.56s2.65,2.12,2.39,4.17c-.15,1.18.21,2.46-1.07,3.28s-1.5,2.18-1.72,3.55c-.16,1,1.22,2,0,2.92s-2.82,2.22-4.48,2c-2.87-.32-5.21,1.4-8,1.53-1.44.06-3.2.69-3.63,2.32-.71,2.69-2.91,2.8-4.7,2.48-3.74-.67-7.51,1.12-11.24-.45a3.81,3.81,0,0,0-3.42.76c-1.78,1.95-5.06,1.74-6.12,4.87-.57,1.71-3.8,1.3-5.3-.91s-4-4.12-4.87-6.94a3.07,3.07,0,0,0-1.61-2.12c-1-.39-2.33-1.08-3-.36-.95,1,.63,1.61,1.17,2.33a20.1,20.1,0,0,1,1.78,2,2.11,2.11,0,0,1-1.56,3.3c-1.91.21-3.42,1.73-5.68,1-1.94-.6-2.46,2.39-4.28,2.81-1.22-.58-1-1.71-1-2.74,0-3,0-6,0-9l.94-1.07c.69-.21,1.4-.39,2.07-.65.5-.18,1.15-.28,1.17-1a2.91,2.91,0,0,0-1.22-.22c-.71,0-1.41.15-2.12.24-.69-1.64-.56-3.15.28-6.06.11-.37-.67-.35-1.1-.33q0-28.18-.05-56.38c0-1.81-.17-3.62-.25-5.43a18.92,18.92,0,0,0,.19-6q.07-13.72.13-27.43l-.11-.26c4.65,1,8.42-1.46,12.37-3.21l1,1.07c-1.85,2.81-4.77,4.89-5.58,8.42a1.37,1.37,0,0,1-1.46.87c-.81-.08-2-.74-1.65.88.22,1.12,1.23,1,2.2.8a13.28,13.28,0,0,0,7.63-4.53c1-1.27,1.88-2.75,3.34-3.66,1-.63,1.91-1.4,3.07-.07a4.62,4.62,0,0,0,5.43,1.07c1.71-.67,2.32-.29,3.16,1.18.95,1.69,2.39,1.51,3.66.13,0,.78,0,1.55,0,2.33-1.67-.07-2.38,1.24-2.89,2.39-3.14,7.05-3.47,14,.84,20.83,1.34,2.11,4.79,3,5,4.81s-1.44,4.33-1.38,6.82c.19,7.79,4.07,13.81,9,19.37.51.58.9.72,1-.28.11-.69,0-2.39,1.12-.42,1.53,2.62,3.08,5.22,4.52,7.89a11.63,11.63,0,0,0,5.36,4.76c1.69.86,3.22,1.64,4.58-.68a2,2,0,0,1,2.86-.52c-.17,1.23,1.83,2.44,0,3.69-.18-.17-.32-.59-.61-.11ZM680,218.68c-.05,6.52,0,6.49,4.57,10.15.89.72,1.31,2.1,2.9,1.61a9.22,9.22,0,0,0,3.66-1.59c4.22-3.66,5.13-12.83,1.59-17.43a2.2,2.2,0,0,0-1.53-.8c-1.2-.19-2.37-.51-3.57-.66-4.47-.6-7.52,2-7.62,6.45C680,217.16,680,217.92,680,218.68Z" transform="translate(-31 -35.2)"/><path class="cls-4" d="M78.73,263.08c-3.83.5-5.54,3-7,6.37-3.93,9-5.78,18.49-7.54,28-1.08,5.82-1.91,11.68-3,17.5a13.84,13.84,0,0,1-3.6,7.13c-3.18,3.44-6,7.17-9.88,10-4.26,3.06-9.16,4.63-13.9,6.58-2.17.89-3.19-.2-2.67-2.52a17.83,17.83,0,0,1,1.38-3.34C35.05,327.27,38,322,40,316.19c2.48-7.13,3.32-14.47,3.55-21.93.11-3.19,0-6.39,0-9.59a25.28,25.28,0,0,1,1.18-7.6c1.38-4.27,3.72-7,8.55-7.59a10.78,10.78,0,0,0,7.56-4.6c2.79-3.81,2.88-3.78,7.35-2.47a9.89,9.89,0,0,0,4,.14c2.11-.24,4.23-.43,6.35-.65ZM48.76,314c.94-.13,1.18-.9,1.38-1.57,1.26-4.35,2.47-8.71,3.68-13.07.65-2.32,1.25-4.66,1.86-7,.17-.63.12-1.35-.46-1.59a.93.93,0,0,0-1.27.88c-.13,1.33-.5,2.13-2.11,2.35s-3.37,2-3.05,2.91c1,2.83-1.23,4.78-1.28,7.3,0,2.27.77,4.66-.62,7C46.38,312.08,47.87,313.23,48.76,314Z" transform="translate(-31 -35.2)"/><path class="cls-5" d="M697.38,152.42c1.37-1.46,3.22-1.59,5-1.79.9-.1,1.94-.22,2.31.89,1.5,4.51,6,6.44,8.59,10.06a11.72,11.72,0,0,1,2,3.91c1.29,5,2.16,10,3.22,15,1.78,8.47,5,16.68,12.12,22.34,3.69,2.93,3.94,6.18,2.26,10a11,11,0,0,0-1,5.28c.1,1.82-1.25,2.31-2.56,2.65s-2.16-.56-3-1.57c-1.53-1.89.46-4-.63-6-.91-1.67-2.37-3.42-1.74-5.5,1-3.28-.94-5.12-2.94-7-.54-2.44-2.58-3.07-4.55-3.79.1-.59.28-1.31-.55-1.45-4-.67-4.34-3.58-4.15-6.78.07-1.13-.92-2.5.4-3.35.81-.52,1.72-.72,1-1.93a1.4,1.4,0,0,0-1.92-.61c-.53.21-1.39.64-1.62,0-.87-2.25-1.66-2-3.44-.66a3.33,3.33,0,0,1-4.58-.26c-1-1.17-2.91-2.28-.66-4a5.34,5.34,0,0,1,.43-4.73,1.08,1.08,0,0,0-.5-1.54c-2.28-.85-1.92-2.73-2.06-4.54a5.09,5.09,0,0,1,2.41-5c.7-.49,1-1.17-.18-1.57,0-.74.67-.83,1.15-1.11a1,1,0,0,0,.45-1.44c-.14-.21-.77-.14-1.18-.14a11.2,11.2,0,0,0-1.29.1c.92-.53,1.9-1.34,1.73-2.32-.23-1.37-1.65-1.39-2.83-1.44-.58,0-1.15-.11-1.73-.16C697.37,153.46,697.38,152.94,697.38,152.42Z" transform="translate(-31 -35.2)"/><path class="cls-6" d="M530.14,78.29a18.79,18.79,0,0,0,.29,11.49c1.9,5.73,3.87,11.44,5.72,17.18a45.42,45.42,0,0,0,6.68,12.82c1,1.41.67,2.1-.43,3.36-2.23,2.54-5,2.34-7.78,2.09a3,3,0,0,1-2.48-2.84c-.3-3.93-2.71-6.59-5-9.36,1.58-2.42,3.24-1.1,4.71,0a21.37,21.37,0,0,1,2.67,2.86c.17.33.31.87.79.58s.27-.74,0-1.12c-3.17-5.72-3.17-5.72-9-3.94-1.72-1.37,2.31-1.51.63-3.36-1-1.1.38-3.13.75-4.72s1.27-2.82,1.47-4.29a25.57,25.57,0,0,0-1.81-12.48c-.18-.49-.52-.78-.94-.66s-.52.65-.47,1.13c.23,1.81.13,3.73.73,5.41,1.26,3.57.41,6.88-.62,10.23-.24.8-.18,2-1.38,2.06a2.81,2.81,0,0,1-2.74-1.32c-.31-.51-.43-1.14-.75-1.64-.6-1-1.6-.78-2.47-.59s-.92,1.06-.93,1.83-.07,1.52,0,2.28a2.64,2.64,0,0,1-2.66,3c-1.92.16-2.52-1.42-2.6-3-.09-2-.07-3.95,0-5.93a5.76,5.76,0,0,0-1.43-4.63c-2.14-2.13-1.05-4.59-.49-6.87.31-1.28.89-.35,1.4.22,1.38,1.58,2.29.83,2.94-.74h0c-.46.81,0,1.43.44,2,.38.88,1.16.73,1.89.72.09,1.54.17,3.08.26,4.62a11.51,11.51,0,0,0-.36,1.31c-.06.42-.22,1.07.33,1.16.87.16.74-.66.76-1.16a5.23,5.23,0,0,0-.26-1.32c.4-2.33.78-4.67,1.19-7a13.84,13.84,0,0,1,2.7-6.78l-.1.09c1-.08,1.41-.5,1-1.5l.35-.37c1.21.59,2.38,0,3.55-.16s1-.87.53-1.63Zm2.68,27.4c-.34-.24-.69-.68-1-.67-1.08,0-1.37,1-1.56,1.79a.55.55,0,0,0,.86.53C531.76,107,532.79,106.91,532.82,105.69Z" transform="translate(-31 -35.2)"/><path class="cls-6" d="M355.55,100.31c2.55.58,4.5,1.83,4.46,4.73,0,2.51,1.52,3.75,3.32,5,2.81,1.94,2.91,2.64.46,4.74-2.26,2-4.17,4.53-7.51,4.85a.58.58,0,0,0-.39.21c-2.53,3.34-6.63,3.94-10.06,5.68a1.8,1.8,0,0,0-1.12,1.51c-.76,3-.06,6-.13,9-.08,3.65-.95,4.41-4.69,3.79a12.67,12.67,0,0,0-8.3,1.54c-.89.48-1.48.94-1.88-.5-.15-.53-1.09-.69-1.57-.2-1.7,1.74-3.82,1.55-5.95,1.49-1.27,0-2.6.05-2.45,1.78.08,1-.61,1-1,1.07-4.1.36-6.83,3-9.66,5.58-.67.6-1.4,1.37-2.37.81s-.52-1.63-.41-2.48c.3-2.5,2.06-3.6,4.27-4a16.41,16.41,0,0,0,9.59-5.58,10.92,10.92,0,0,1,3-2c6.09-3.45,11.94-7.2,16.82-12.32a55,55,0,0,1,4.77-4.23c4-3.34,6.77-7.33,6.69-12.79a5.34,5.34,0,0,1,1.2-3.35c1.05-1.42,2-2.9,3.05-4.35Z" transform="translate(-31 -35.2)"/><path class="cls-5" d="M515,87.37h0c-2.38-1-2.92-2.25-1-4.34.83-.91,1.37-2.33-1-2.08-1.1.12-1.12-.75-1.13-1.51,0-2.6-.34-4.86-2.69-6.81-1.34-1.1.22-3.28.92-4.84.59-1.33,1.54-.37,2.28-.09a7,7,0,0,0,3.55.55,6.38,6.38,0,0,0,1.16-.4c-.37-.22-.75-.43-1.1-.68-1.1-.76-2.51-.83-3.53-2a7.92,7.92,0,0,1-1.76-3.88c-.17-1.43,1.54-3.77-1.55-4.14l0,.06c.49-1.57,0-2.19-1.5-1.89l-.34-1.3a1.11,1.11,0,0,0,.57-1.19l3.61,0c2.12,2.13,4.32,4.2,6.34,6.43a12.75,12.75,0,0,0,7.6,4.53,6.72,6.72,0,0,1,5.41,4.91c.78,2.35,1.54,4.54,4.33,5.16.39.09.74.54,1,.91.64.9,2.2,1.42,1.61,2.86-.73,1.77-2,.41-3.1.4-1.5,0-3,.16-4.5.25l-2.91-.89a5.48,5.48,0,0,0-4.08,1.79l-.35.37c-.53.37-1.24.62-1,1.5l.1-.09c-3-.43-4.51,1.3-5.64,3.67l.08,0c-1.54.34-.74,1.7-1.11,2.56Z" transform="translate(-31 -35.2)"/><path class="cls-5" d="M375,68.78a7.62,7.62,0,0,0,.73-1.63c1.48-8.11,8.86-8,14.44-10.27,1-.44,1.15.69,1,1.4a4,4,0,0,1-.93,1.53,6,6,0,0,0-1.78,5A5,5,0,0,1,388,67.4a6.83,6.83,0,0,0,.84,6.84A19.53,19.53,0,0,1,391,78.73c.46,1.35,1.66,3-1.1,3.72-1,.24-.95,1.79-1.38,2.74-1.24,2.77-4.25,3.75-6.13,1.49s-4.13-2.44-6.73-2.3c-2.86.16-2.86.06-1.75-2.79a3.68,3.68,0,0,0,.09-.89c1.37-1.36,1.39-3.13,1.6-4.9C375.86,73.4,375,71.14,375,68.78Z" transform="translate(-31 -35.2)"/><path class="cls-7" d="M728.24,223.65c-1.54,1.56-2.9,1.07-4.11-.41-2.21-2.7-4.38-5.43-6.57-8.15a4.12,4.12,0,0,1-1-2c-.84-5.24-3.71-8.78-8.92-10.19a2.12,2.12,0,0,1-1.79-1.8c-.1-2.5-1.11-4.66-2-6.89-.32-.74-.28-1.23,1.22-1.23,3.23,0,4.12-1.83,2.84-4.72a13.24,13.24,0,0,0-1-1.51c-.31-.48-.81-1-.29-1.58a2,2,0,0,1,1.61-.66c.86,0,.84.7.94,1.27a27.18,27.18,0,0,1,.78,4.93c0,2.41,1.05,4.35,2,6.38,0,1.2,0,2.4.14,3.59a1.24,1.24,0,0,0,.94.75.7.7,0,0,0,.59-1,5.83,5.83,0,0,1-.67-3c1-1.17,2.5.36,3.59-.55,2,.72,4,1.35,4.55,3.79-.09.89.14,2-.31,2.64-2.47,3.47-2,7-.32,10.49A26.07,26.07,0,0,0,728.24,223.65Z" transform="translate(-31 -35.2)"/><path class="cls-7" d="M310.78,164.24a1.17,1.17,0,0,0,.33-1.57c-.42-1.11-1.68-2.13-1.12-3.33a20.08,20.08,0,0,1,3.31-5.43,1.64,1.64,0,0,1,2.41-.21c.66.46,1.46.68,1.94-.18.34-.6-.16-1.14-.56-1.59-.68-.74-1.3-1.45.35-1.66.91-.12,1.82-.23,2.73-.27s2.54-.66,3,.27c.59,1.29-.37,3.26-1.4,3.47-4,.82-3.38,4.15-3.79,6.66-.71,4.36-1.3,4.85-5.73,3.26a1.17,1.17,0,0,0-1.52.51Z" transform="translate(-31 -35.2)"/><path class="cls-7" d="M505.18,53.74a3.83,3.83,0,0,0,.46-.72,1.36,1.36,0,0,0,1.64,1l.34,1.3c.44.68,0,2.06,1.5,1.89l0-.06a1.94,1.94,0,0,0-.78,2,7.36,7.36,0,0,1-3.46,6.52,8,8,0,0,0-2.76,3c-.31.67-.54,1.38-.81,2.07A3.19,3.19,0,0,1,500,68.52c-.06-1.51,0-3,.06-4.55,0-.78,0-1.55-1.1-1.48a1.1,1.1,0,0,1,.43-.64c1.7-.17,2.12-.87,1.46-2.39a.58.58,0,0,1,.37-.36c.94.59,1.4.11,1.46-.77.1-1.5.07-3,.09-4.52Z" transform="translate(-31 -35.2)"/><path class="cls-7" d="M667.19,259.41c0,3,0,6,0,9,0,1-.2,2.16,1,2.74-1.66,1.6-3.35.94-4.86-.12-2.61-1.82-5.14-3.72-8.52-3.78-.24,0-.69-.24-.7-.37a.8.8,0,0,1,.91-.8,7.27,7.27,0,0,0,5.78-2.1c1-.95,2-1.76,2-3.33,0-2.16,1.54-1.8,2.89-1.78Z" transform="translate(-31 -35.2)"/><path class="cls-6" d="M372.63,95.75c-2.51-1.06-5.07-.21-7.6-.21-1.93,0-2.59-1-1.59-2.53a27.87,27.87,0,0,1,3.92-5c1.86-1.75,4.23-.78,6.41-.52,0,1.89,0,3.78,0,5.67C373.8,94.22,373.83,95.27,372.63,95.75Z" transform="translate(-31 -35.2)"/><path class="cls-7" d="M554.25,128.54c-.24.71-.28,1.7-.77,2.08-2.17,1.67-2.92,4.14-4,6.44a5.19,5.19,0,0,1-.75,1c-.31-.32-.78-.59-.91-1a25.6,25.6,0,0,0-3.62-7.24c-.65-.87-.37-1.63.56-2.26,2.39-1.6,7.2-1.38,9.32.41C554.32,128.17,554.56,128.16,554.25,128.54Z" transform="translate(-31 -35.2)"/><path class="cls-7" d="M178.14,216.25c1.05-.77,1.7.21,2.19.73,4.13,4.4,10.84,5.6,13.95,11.25-1.34,0-2.67-.13-4-.11-1.14,0-2-.05-2-1.59a2.05,2.05,0,0,0-2.49-2c-4,.67-6.37-1.7-8.74-4.23l.34-1C179.38,218.72,178.55,217.43,178.14,216.25Zm1.59,4.4.3-.31a2.58,2.58,0,0,0-.59-.26c-.07,0-.19.17-.29.27Z" transform="translate(-31 -35.2)"/><path class="cls-7" d="M372.63,95.75c1.2-.48,1.17-1.53,1.16-2.56,0-1.89,0-3.78,0-5.67,3.19-.11,3.23-.12,4,3a2.59,2.59,0,0,0,1.37,1.62c.75.49,1.47,1,2.26,1.46,1.22.66,1.09,1.58.71,2.67s-1.26,1.14-2.16.86c-1.9-.57-3.78-1.17-5.39.63l-.27,0L374,97.7Z" transform="translate(-31 -35.2)"/><path class="cls-7" d="M736.27,209.26c1.35.79,2.82,1.55,4.18,2.48.88.6.76,1.57.32,2.44-.6,1.18-1.6,2.15-1.53,3.67.06,1.35-1.18,1.38-1.94,1.1a3.22,3.22,0,0,1-2.4-3.4c.26-1.86,1.54-3.6.36-5.59C735.09,209.68,735.66,209.25,736.27,209.26Z" transform="translate(-31 -35.2)"/><path class="cls-7" d="M733,225.44c.24-.92,0-1.85,1-2,.64-.13,1.1.33,1.49.8s.57.68.84,1c.76,1,2.93.24,3,2.21s-.78,3.48-1.26,5.19c-.13.46-.71.76-1,.3q-2.09-3.15-4-6.41C732.79,226.2,733,225.65,733,225.44Z" transform="translate(-31 -35.2)"/><path class="cls-7" d="M367.4,108.6c-.45,0-.9-.09-1.35-.1-1.5,0-1.84-.67-1.1-2,.46-.82,1.74-1.37,1-2.68-.43-.72-1.76-1.25-1.09-2.19.87-1.22,1.85.18,2.79.34a2.43,2.43,0,0,1,1.28.41c.85.91,3.17-.47,3,1.81C371.68,107.21,370.08,108.67,367.4,108.6Z" transform="translate(-31 -35.2)"/><path class="cls-7" d="M275.88,215.48c-1.34-.39-2.89.18-4-1.43s-2.88-.86-4.17-.45c-2.45.78-4-.11-5.36-1.94l-.13.09c1.89-.18,3.65-.17,5.1-2.06,1.29-1.68,3.25-1,4.3,1.18a4.42,4.42,0,0,0,2.07,2.23,1.32,1.32,0,0,0,1.4.39c-.26.88,1.17,1,.86,1.91Z" transform="translate(-31 -35.2)"/><path class="cls-7" d="M360.8,127.71c3,1.22,3.28,4,3.9,6.63.3,1.26-.46,1.94-1.73,2.06s-2.64.1-2.85-1.42c-.3-2.13-.23-4.32-.32-6.48Z" transform="translate(-31 -35.2)"/><path class="cls-8" d="M680.85,151.16c.19-.73.44-1.44.56-2.18.24-1.42.94-1.92,2.12-.95,2.51,2.05,5.51,3.15,8.37,4.53a1.14,1.14,0,0,1-.12.77,8.91,8.91,0,0,1-3.94-.93c-2.78-1.29-2.89-1.29-4.14,1.4-.47,1-1.12,1.62-2,1.36-1.57-.45-.27-1.35-.13-2.08a.69.69,0,0,0-.7-.87C680.85,151.86,680.85,151.51,680.85,151.16Z" transform="translate(-31 -35.2)"/><path class="cls-7" d="M561.73,120c-1.55,1-1.15,3.18-2.88,3.89a2.3,2.3,0,0,1-2.85-.78c-.56-.76-.17-1.43.34-2a5.41,5.41,0,0,0,1.42-2.27c.23-.94.28-2.9,1-2.54C560,116.8,560.65,118.49,561.73,120Z" transform="translate(-31 -35.2)"/><path class="cls-8" d="M355.63,100.24c-.84-.86-2.15,1.08-2.73-.33a4,4,0,0,1,.8-3.84c.78-1.08,2-.61,2.81.06,1.82,1.45,4,1.26,6,1.46.63.06,1.19.27,1,1.07a1.35,1.35,0,0,1-1.27,1.12,15,15,0,0,1-3.46-.91c-1.66-.66-2.82-.49-3.29,1.44Z" transform="translate(-31 -35.2)"/><path class="cls-7" d="M526.47,207a8.17,8.17,0,0,0-1.23.45c-1.12.64-2.56,2.47-3.32,1.49-1-1.29.93-2.44,2-3.36,2.08-1.84,2.33-1.76,4.39.67l.05-.05c-1.22-.83-1.65-.06-2,1Z" transform="translate(-31 -35.2)"/><path class="cls-8" d="M742.12,253.72c0,1.33-2.18,3.85-3.38,3.74-.75-.07-1.54-.92-.89-1.57,1.43-1.46,2.3-2.91,1.85-5-.14-.66.68-.45.95-.21A7.41,7.41,0,0,1,742.12,253.72Z" transform="translate(-31 -35.2)"/><path class="cls-8" d="M501.65,193.48c-.41,1-.48,1.86-1.59,1.39a6.79,6.79,0,0,0-1.65-.59c-1.07-.14-2.31-.2-2.32-1.56s1.23-1.16,2.06-1.1C499.61,191.73,501,192.1,501.65,193.48Z" transform="translate(-31 -35.2)"/><path class="cls-8" d="M543.09,221.83c-.1.64-.2,1.28-.31,1.92-.9-.51-2.13-.88-2.29-2s.74-1.93,1.47-2.68,2.26-1.29,2.86-.62c.94,1-.74,1.47-1.23,2.2C543.34,221.05,542.92,221.29,543.09,221.83Z" transform="translate(-31 -35.2)"/><path class="cls-8" d="M360.8,127.71l-1,.79c-1.11-1.65-2.07.38-3.1.11-.39-.11-.95-.28-1.06-.57a1.27,1.27,0,0,1,.31-1.18,14.44,14.44,0,0,1,2.78-1.39C361.16,124.57,360.41,126.69,360.8,127.71Z" transform="translate(-31 -35.2)"/><path class="cls-8" d="M513.72,192.1c0,.79-2.72,2.87-3.26,2.55a.85.85,0,0,1-.23-.75c.39-1.52,1.66-1.93,3-2.23C513.35,191.64,513.58,192,513.72,192.1Z" transform="translate(-31 -35.2)"/><path class="cls-8" d="M533.82,206.23c.93-.22,1.89-1.76,2.79,0a3.14,3.14,0,0,1-.48.69c-.49.45-.53,1.56-1.34,1.38C533.77,208.12,533.92,207,533.82,206.23Z" transform="translate(-31 -35.2)"/><path class="cls-8" d="M82,262.21c-.24.07-.48.14-.72.19l-2.59.68-.14-1.18c.69-1,1.85-.69,2.76-1.07l.9,0C83.46,261.44,82.76,261.83,82,262.21Z" transform="translate(-31 -35.2)"/><path class="cls-8" d="M540,212.44l.87,1c-.46,1-.88,3-2,2.18C537.61,214.72,539.31,213.45,540,212.44Z" transform="translate(-31 -35.2)"/><path class="cls-5" d="M691.78,153.33a1.14,1.14,0,0,0,.12-.77l4.48.46c0,.33,0,.66,0,1C694.8,154.17,693.16,154.67,691.78,153.33Z" transform="translate(-31 -35.2)"/><path class="cls-2" d="M663.6,253.76c.41-.11.84-.17,1.24-.32s1-.72,1.55-.16c.78.86-.21,1.17-.59,1.66a5.55,5.55,0,0,0-.44.74C663.65,256.07,662.76,255.7,663.6,253.76Z" transform="translate(-31 -35.2)"/><path class="cls-7" d="M173.47,216.34a3.8,3.8,0,0,0-.33-.77c-.35-.47-.73-1-.33-1.52s1,.1,1.47.23a10.49,10.49,0,0,0,1.25.2l-.1-.09.64,1.1C175.34,216.18,174.7,217.18,173.47,216.34Z" transform="translate(-31 -35.2)"/><path class="cls-7" d="M175.53,214.48a1.72,1.72,0,0,1-.11-.78l.07-1.22c1,1.19,3.1,1.68,2.75,3.87-.83-.07-1.32-1.09-2.27-.83.38-.64-.06-.9-.54-1.13Z" transform="translate(-31 -35.2)"/><path class="cls-8" d="M447.79,154c0-1.41-.47-2.89.52-4.18.94,1.3.44,2.77.47,4.18A.69.69,0,0,0,447.79,154Z" transform="translate(-31 -35.2)"/><path class="cls-8" d="M177.38,219.31l-.34,1c-.81-.3-1.8-.81-1.23-1.7C176.22,218,177,218.74,177.38,219.31Z" transform="translate(-31 -35.2)"/><path class="cls-8" d="M555.09,162a11,11,0,0,1-.45-2c0-.32.39-.63.6-.95a1.59,1.59,0,0,1,.4,1.6A8.76,8.76,0,0,1,555.09,162Z" transform="translate(-31 -35.2)"/><path class="cls-8" d="M515.26,193.14l.22,1.34c-.16.47-.62.84-.91.46C514,194.13,514.68,193.61,515.26,193.14Z" transform="translate(-31 -35.2)"/><path class="cls-8" d="M696.39,154c0-.34,0-.67,0-1a.79.79,0,0,1,1-.6c0,.52,0,1,0,1.56Z" transform="translate(-31 -35.2)"/><path class="cls-2" d="M680.85,151.16c0,.35,0,.7,0,1.05a.76.76,0,0,1-.4.54l-1-1.07Z" transform="translate(-31 -35.2)"/><path class="cls-8" d="M545.56,225.45c.54-.14,1-.13,1,.62Z" transform="translate(-31 -35.2)"/><path class="cls-4" d="M194.6,228.53c.83.17,1.61.39,1,1.52C194.64,230,194.55,229.29,194.6,228.53Z" transform="translate(-31 -35.2)"/><path class="cls-4" d="M189.87,154.6l.68.9-.44.44a7,7,0,0,0-.91,0l0,0a2,2,0,0,0,0-.91A1.62,1.62,0,0,1,189.87,154.6Z" transform="translate(-31 -35.2)"/><path class="cls-7" d="M275.94,217l.07,1c-.21-.07-.57-.1-.61-.23C275.24,217.38,275.59,217.18,275.94,217Z" transform="translate(-31 -35.2)"/><path class="cls-1" d="M534.56,212.93l-.17.31-.46-.31c.11-.1.21-.28.32-.28S534.46,212.83,534.56,212.93Z" transform="translate(-31 -35.2)"/><path class="cls-5" d="M675.25,636.76a4.78,4.78,0,0,0-.76-.08c-2.15-2.57-4.59-4.49-8.24-3.85-1.64-.57-3.66.51-5.06-1.16-.28-.34-.61-.65-.92-1,.37-.23.73-.49,1.11-.7,1.52-.79,3.23-.45,4.83-.82.54.3.91.1,1.16-.41l0-.11a12.45,12.45,0,0,0,9.61-1c3.93-2.21,8.81-2.12,12.41-5.24,1-.91,2.63-.28,3.95.06a13.51,13.51,0,0,0,7.53-.21,12.77,12.77,0,0,1,8.86.59c2,.88,2.08,1.22.34,2.69a10.35,10.35,0,0,1-3,2c-5,1.8-9.27,5-14.14,7.11a9.6,9.6,0,0,0-2.48,1.94Z" transform="translate(-31 -35.2)"/><path class="cls-4" d="M854.08,392.6a17.22,17.22,0,0,1-1.76,10.26,13.89,13.89,0,0,0-.89,10.14c.9,3.43.39,7-.16,10.42a10.24,10.24,0,0,0,.39,5.79c1.6,3.86.66,8.16,1.75,12.09a13.06,13.06,0,0,1-2.4,12.29,4.21,4.21,0,0,0-1,2c-.18,1.63-1,2.09-2.47,1.73a2.74,2.74,0,0,0-2.57.57c-2.47,2.18-4.81.68-6.86-.48-2.66-1.51-4.41-1.73-6.77.18-1.4,1.13-2.38,3.24-4.12,3.36-1.94.13-3.33-1.91-5.06-2.82a7.29,7.29,0,0,1-4.26-5.5c-.36-2.17-1.93-3.81-3.47-5.25-2.13-2-2.84-4.59-3.56-7.24-1.27-4.68,1.86-7.34,4.83-9.81a9.79,9.79,0,0,0,3-3.75c.42-1-.08-2.28.63-3.29.86,1.53,3.15.89,3.82,2.06,2.61,4.56,6.64,3.29,10.49,3a4.67,4.67,0,0,0,2.11-.75c.8-.47.78-2.42,2.18-1.54a2.93,2.93,0,0,1,1.14,3.25c-.58,2.48.36,4.44,2.07,6.15,1.88,1.91,3.29,1.65,4.5-.75s1.07-5,1.35-7.56c.43-3.91-.45-7.89.89-11.76.64-1.86-1.19-2.6-2.43-3.33a5,5,0,0,0-2.24-.2c-2,0-2.31-1.34-1.67-2.76s2-2.54-.21-3.69c-.19-.1-.35-.65-.34-.65,2.57-1.34.5-5.25,3.6-6.37,1.26-.45,1.23-1.95,1.62-3.09,1.05-3,2.17-6,4.85-8,1.06-.79,1.15-2.11,2-2.94a27,27,0,0,1,.86,3.82C854.19,389.8,854.08,391.48,854.08,392.6Z" transform="translate(-31 -35.2)"/><path class="cls-3" d="M837.93,345.18c.45,2.52.28,4.66-2.12,6.42-1.07.79-1.39,2.62-2,4-.85,1.93-1.63,3.76-3.49,5.13a4.88,4.88,0,0,0-1.28,6.42c1.05,1.9,2,3.61,1,5.92-.55,1.25.19,2.67.47,4,.25,1.15.11,2.13-1.33,2.38A1.89,1.89,0,0,1,826.8,378c-.74-2.31-1.55-4.59-2.37-6.87a11.84,11.84,0,0,0-1.24-2.89c-2.12-3.06-4-3.5-7.38-1.86-1.77.86-3.48,1.85-5.27,2.65-2,.88-2.9.35-3.48-1.78-.77-2.84-1.71-3.57-4.28-2.37-3.84,1.8-7.76-.14-11.58.69-.09,0-.92,0-.78-1.05.38-2.89-.3-3.51-2.84-3.27-.6.06-1.19.26-1.79.29-.81,0-1.71-.27-1.9-1-.29-1.12,1.1-.49,1.38-1,.49-.83,3-1.9-.12-2.59.69-1.3,2-1,3.08-1.06.82,0,1.55,0,1-1.15-.29-.59-.63-1.6-1.52-1a6.86,6.86,0,0,1-3.58,1.47,12,12,0,0,0-1.79-.07c-1.68.16-2.67-.38-2.21-2.22s-1.18-3.85.17-5.81c.24-.35-.45-1.34-.71-2l.33.12Z" transform="translate(-31 -35.2)"/><path class="cls-6" d="M735,636.68c-.43-1.63-.87-3.22-2.63-4a4.66,4.66,0,0,1-2.6-3.5c-.31-1.25-.19-2.1,1-2.56,6.07-2.27,5.93-7.81,6.78-12.83a2.55,2.55,0,0,0-.93-2.41c-.66-.65-2-.87-1.68-2.29l-.11.13c1.87.68,2.9,0,3-2,0-.74-.21-1.48-.25-2.23a6.62,6.62,0,0,1,.18-1.24,4,4,0,0,1,1.2.48c1.68,1.44,2.48,3.85,5,4.39.67.14.41.78.16,1.06-3.81,4.26-2.73,9.11-1.11,13.61,1.56,4.33,2.51,8.14-1.32,11.68-.38.36-.41,1.09-.6,1.65a1.47,1.47,0,0,1-.51-.08Z" transform="translate(-31 -35.2)"/><path class="cls-7" d="M861.52,344.13l.43,1c-.56,2.32-1.14,4.63-1.66,6.95-.35,1.56-1,3.26-2.73,2.88s-3.86-1.58-3.85-3.29c0-2.5-1.15-5-.1-7.52Z" transform="translate(-31 -35.2)"/><path class="cls-7" d="M803.41,475.92a6.52,6.52,0,0,1-1.74,3.62,61.7,61.7,0,0,0-6.35,7.7,9,9,0,0,1-2.45,2c-.33.23-.77.58-1.16.06s0-.82.26-1.14a25.52,25.52,0,0,0,2.38-2.74c.65-1,.73-2.52,1.57-3.19,1.61-1.29-1.48-4.46,1.92-4.63,2.16-.1,2.11-3.07,4.28-2.89A2.1,2.1,0,0,1,803.41,475.92Z" transform="translate(-31 -35.2)"/><path class="cls-8" d="M837.93,345.18l-58,.08-.15-1.12,58.2,0Z" transform="translate(-31 -35.2)"/><path class="cls-8" d="M675.25,636.76l15.14-.2c-1.1,3.09-3.17,4.15-6.5,3.81S677.5,639.49,675.25,636.76Z" transform="translate(-31 -35.2)"/><path class="cls-7" d="M740.62,636.57c.09.35.18.7.28,1-.58,1.68-1.09,3.38-1.76,5-.44,1.1-1.12,2.47-2.5,2a2.9,2.9,0,0,1-2-3.1c.13-1.63.27-3.26.41-4.89Z" transform="translate(-31 -35.2)"/><path class="cls-7" d="M854,367.79c-.17-.22-.53-.47-.49-.64.4-2.2-.39-4-1.4-5.94a2.73,2.73,0,0,1,.48-3.36c.86-.75,1.71-2,3-1.33s.38,1.8.11,2.78a37.3,37.3,0,0,0-1.13,7.59C854.53,367.23,854.65,367.82,854,367.79Z" transform="translate(-31 -35.2)"/><path class="cls-8" d="M803.41,475.92a2.1,2.1,0,0,0-1.29-1.23c2.7-1.86,4.28-4.95,7.21-6.56l.5.46A37.37,37.37,0,0,1,803.41,475.92Z" transform="translate(-31 -35.2)"/><path class="cls-8" d="M811.18,466.25c1.92-2.39,4.87-.76,7.13-1.82a1.6,1.6,0,0,1,.54-.07c-.28.08-.58.15-.86.26-2.07.84-4,2-6.33,2.16Z" transform="translate(-31 -35.2)"/><path class="cls-8" d="M738.57,716.63a7.66,7.66,0,0,1,1.47-.29.86.86,0,0,1,.88,1.16.44.44,0,0,1-.72.29C739.72,717.49,739.27,717.13,738.57,716.63Z" transform="translate(-31 -35.2)"/><path class="cls-7" d="M752.45,566.53c.18.15.49.28.52.45a1.7,1.7,0,0,1-.93,1.81c-.63.38-.81-.14-.81-.52A2.13,2.13,0,0,1,752.45,566.53Z" transform="translate(-31 -35.2)"/><path class="cls-6" d="M735,609.08l-1.17-.06c0-.11,0-.3.08-.32.5-.18.7.25,1,.51Z" transform="translate(-31 -35.2)"/><path class="cls-7" d="M851.78,340.55c.06-.51.32-.76.84-.68Z" transform="translate(-31 -35.2)"/><path class="cls-8" d="M811.66,466.78a1.12,1.12,0,0,1-.93.9l-.45-.52.9-.91Z" transform="translate(-31 -35.2)"/><path class="cls-8" d="M810.73,467.68a1,1,0,0,1-.9.91l-.5-.46.95-1Z" transform="translate(-31 -35.2)"/><polygon class="cls-6" points="706.16 567.1 706.23 567.46 705.97 567.41 706.16 567.1"/><path class="cls-6" d="M1156.1,448.52c1.23,7.16-1.38,14.17-1,21.33a66.67,66.67,0,0,0,2.45,15.67,25.71,25.71,0,0,1,1.3,8.06c0,1.19-.39,2.38-.53,3.58-.18,1.66-1.79,1.91-2.72,2.83,1,.78,2.45,1.36,2.94,2.4a4.8,4.8,0,0,1-.39,5.18,13,13,0,0,1-4.25,4.05,20.47,20.47,0,0,0-7.21,5.4c-.76,1-1.52,1-1.87-.31-1.61-5.73-5.33-10.51-7.25-16.11-1.1-3.23-1.11-6.16,1-9s2.87-6.65,3.77-10.15a9.37,9.37,0,0,0-.37-5.36c-1.11-3.23-2.14-6.41-1.7-10.12.29-2.5-.55-5.32-.76-8-.39-5.07,1.82-9.1,4.46-13.07a2.4,2.4,0,0,1,.23-.38c1.41-1.52,3.7-1.4,5.09-2.42s1.84-3.38,3.81-4.25c1.39-.61,2.41-.47,2.7,1.17a25.57,25.57,0,0,1,.26,3.61C1156.12,444.58,1156.1,446.55,1156.1,448.52Zm-10.06,7.9c0,1.81.61,3.59.14,5.43s.77,3.48,1.55,5.09c.35.72.8.76,1.15-.08a22,22,0,0,0,1.72-6.11c.56-5.05-.59-10-.7-15a3.23,3.23,0,0,0-.29-.86,3.54,3.54,0,0,0-1.17.5c-1.39,1.41-2.66,2.83-2.44,5.11C1146.19,452.46,1146,454.45,1146,456.42Zm5.85,20.73a27.42,27.42,0,0,0-.43-3.15c-.68-2.57-1.42-2.92-3.92-2.06-2.28.79-4.48,4.25-4.32,6.82,0,.4.08.88.58.93.12,0,.4-.44.44-.7.35-1.9,1.59-1.43,2.78-1.09a14.92,14.92,0,0,1,2.57.86C1151.45,479.7,1152.08,479.08,1151.89,477.15Zm-.75,16.17c-.17-.91-.34-1.79-.49-2.67s-.58-1.42-1.37-.58a14.87,14.87,0,0,0-1.89,2.51,2.36,2.36,0,0,0,.36,2.91,2,2,0,0,0,2.11.4C1151.22,495.55,1150.83,494.23,1151.14,493.32Zm0,14.82c-3.06.17-4.35,1-4.36,2.66,0,1.45.86,1.77,2,1.68,1.82-.15,3.86-1.85,3.75-3.15C1152.53,508.56,1152.19,507.88,1151.17,508.14Zm-3.24-5.63c0-.94-.44-1.75-1-1.84-.86-.16-2.6,1.86-2.37,2.82.17.71.81.76,1.4.76C1147.13,504.23,1148.14,504.05,1147.93,502.51Zm-5.85-35.7c-1.06.7-.5,1.84-.58,2.8a4.7,4.7,0,0,0,.29,1.29,4.8,4.8,0,0,0,.7-1.07,12.85,12.85,0,0,0,.5-2.21C1143.06,467.1,1142.68,466.86,1142.08,466.81Zm13.58,26.26a10.28,10.28,0,0,0-.9.81.41.41,0,0,0,.18.7c.68.26,1-.08,1.09-.73C1156.05,493.63,1155.82,493.39,1155.66,493.07Z" transform="translate(-31 -35.2)"/><path class="cls-5" d="M1081.75,624.67c-.64-.14-.63-.7-.53-1.33.77-4.77,2.13-9.46,2.94-14.17,1-5.52,3.09-10.79,3.4-16.4.1-1.87.34-3,2.54-1.76,2.38,1.37,4.8.49,7.08-.26,4.36-1.44,8.93-1.68,13.37-2.65a2.1,2.1,0,0,1,2.45.68c.73,1.11-.36,1.66-.86,2.29-1.51,1.91-3.1,3.76-4.68,5.61-.39.46-.8,1.15-1.29,1.23-4.26.72-5.35,4.6-7.34,7.45-1.32,1.89-2.38,3.87-4.61,4.83-.28.12-.63.26-.75.5-2.32,4.68-7.3,7.25-9.52,12C1083.06,624.62,1082.71,624.84,1081.75,624.67Z" transform="translate(-31 -35.2)"/><path class="cls-7" d="M1140.88,567.21c.58-.16,1.15-.35,1.74-.47a9,9,0,0,1,1.28-.08,4.85,4.85,0,0,1-.34,1.08,6.78,6.78,0,0,1-1.28,1.85c-3,2.6-6.25,5-10.31,5.77a2.89,2.89,0,0,1-2.9-.86c-.83-1.08.18-1.93.66-2.83a6.23,6.23,0,0,1,4.91-3.5c2.08-.28,4.14-.75,6.2-1.14Z" transform="translate(-31 -35.2)"/><path class="cls-8" d="M1171.57,501.34c-.2.55-.34,1.2-1.13,1a.79.79,0,0,1-.29-.71c.27-.48.51-1.09,1.2-1.09C1171.42,500.57,1171.5,501.07,1171.57,501.34Z" transform="translate(-31 -35.2)"/><path class="cls-6" d="M1060.4,718.86c-.14,1.39.4,2.95-1,4.18-.9.79-1.66,1-2-.24-.72-2.62-1.22-5.29-2-7.89-.29-.93-.64-2.88,1.43-3.23,1.78-.3,2.19,1,2.86,2.23C1060.51,715.51,1060.34,717.14,1060.4,718.86Z" transform="translate(-31 -35.2)"/><path class="cls-5" d="M498,52.7l-29,0c-.67-1.22-1.57-1.73-2.89-.93l-33.32-.13a14.41,14.41,0,0,0,6.08-6.44c.83-1.65,1.84-4.08.76-4.93-2.06-1.6-3.2,1.22-4.67,2.26a3,3,0,0,0-.82,1.08c-1,1.9-3,2.21-4.71,2.06-2.51-.23-5.39-.13-6.82-3a1.36,1.36,0,0,0-1.2-.46c-.79.23-.46.9-.33,1.46s.2,1.19.3,1.79a1.59,1.59,0,0,0-.4.16c-.06,0,0,.29,0,.29.33,0,.45-.14.35-.53,1.09,0,2.27-.45,2.72,1.25a10.66,10.66,0,0,0,3.71,5.2l-29.53-.06c.91-2.7,1.34-5.6,3.26-7.9.89-1.07,1.79-2.14,3.33-2.08,3.08.12,5.59-1.26,7.92-3A8.21,8.21,0,0,1,418.6,37c5.12.42,10.27-.79,15.41.13a6,6,0,0,0,4.37-.89,6.13,6.13,0,0,1,6.06-.41c6.66,2.62,13.76,3.44,20.7,4.93a5.5,5.5,0,0,0,2.7.06c3.11-1,6,0,8.8.94,6.42,2.21,13.06,3.73,19.23,6.76,2.33,1.15,5.32.93,7.44,2.83.25.23,1.16,1-.21,1a1.66,1.66,0,0,0-.43.14l-.36,0A22,22,0,0,0,499.72,51C497.87,50.2,497.82,51.36,498,52.7Zm-78.67-9.6c.09-1.16-.77-1.46-1.65-1.8-1.05-.41-1.91-.56-2.78.53-1.1,1.37-1.82,3.11-3.82,3.68-.9.25-1.07,1.41-.72,2.3a1.67,1.67,0,0,0,1.87,1c2.28-.63,4.73-1,6.27-3.18A3.67,3.67,0,0,0,419.33,43.1Zm34.78.23c.07-.79-.46-.78-.82-.76-1.82.11-3.05-1-4.46-1.88-.85-.5-1.26-2.74-2.52-1.28-.81.92.81,2,1.56,2.89,1.39,1.66,3.5,1.34,5.33,1.77C453.45,44.12,453.85,43.55,454.11,43.33ZM441.6,37.48a9,9,0,0,0-1.18,1.9c-.11.36.44.63.95.43A1.45,1.45,0,0,0,442.3,38C442.27,37.83,441.94,37.72,441.6,37.48Zm14.27,4.71c-.11-.1-.22-.28-.34-.28s-.23.18-.34.28c.11.1.22.28.34.28S455.75,42.29,455.87,42.19Z" transform="translate(-31 -35.2)"/><path class="cls-8" d="M398.18,51.7l29.53.06,5.06-.14,33.32.13a1.64,1.64,0,0,1-1.63,1l-61.6,0c-1.82,0-3.64-.07-5.47-.11C397.55,52.19,397.66,51.76,398.18,51.7Z" transform="translate(-31 -35.2)"/><path d="M667.21,250.35c-.12.52-.53.59-1,.63q0-27.93,0-55.88c0-1.36-.12-2.72-.18-4.08a3.13,3.13,0,0,1,.83-2.48c.08,1.81.24,3.62.25,5.43Q667.21,222.17,667.21,250.35Z" transform="translate(-31 -35.2)"/><path d="M667.1,182.58l-.39-.07-.4,0-.14-27.3,1.06-.09Q667.17,168.86,667.1,182.58Z" transform="translate(-31 -35.2)"/><path class="cls-9" d="M502.31,52.53l-3.61.28a3.29,3.29,0,0,1-.7-.11c-.18-1.34-.13-2.5,1.72-1.7A22,22,0,0,1,502.31,52.53Z" transform="translate(-31 -35.2)"/><path class="cls-8" d="M428.58,130.1c0-.43,0-1,.48-1s.48.52.46.86a1.74,1.74,0,0,1-.82,1.43Z" transform="translate(-31 -35.2)"/><path class="cls-8" d="M508.81,163.29l.73.32c-.14.17-.27.48-.43.49s-.47-.17-.71-.27Z" transform="translate(-31 -35.2)"/><polygon class="cls-8" points="476.04 127.61 475.74 127.72 475.76 127.46 476.04 127.61"/><path class="cls-8" d="M281.49,212.6c.18,1.26.08,2.21-1.57,1.38-1.32-.66-1.62-2-2.13-3.22l.92-.24,1,.23-.07,0c.06.89.75.92,1.39,1A.71.71,0,0,1,281.49,212.6Z" transform="translate(-31 -35.2)"/><path class="cls-8" d="M189.2,156a7,7,0,0,1,.91,0c0,.55.1,1.45-.46,1.45S189.11,156.54,189.2,156Z" transform="translate(-31 -35.2)"/><path class="cls-8" d="M152.62,188.85a.88.88,0,0,1-.4.51c-.07-.12-.16-.23-.23-.36-.26-.5-.46-1.34.06-1.42C152.83,187.47,152.63,188.32,152.62,188.85Z" transform="translate(-31 -35.2)"/><path class="cls-8" d="M189.2,155a2,2,0,0,1,0,.91c-.21-.09-.55-.15-.58-.28C188.48,155.19,188.83,155.08,189.2,155Z" transform="translate(-31 -35.2)"/><path class="cls-4" d="M174.66,212.58c-.77.12-1.22-.08-1-1C174.6,211.36,174.92,211.68,174.66,212.58Z" transform="translate(-31 -35.2)"/><path class="cls-4" d="M175.49,212.48l-.07,1.22c-.56-.2-1.07-.43-.82-1.19Z" transform="translate(-31 -35.2)"/><path class="cls-8" d="M516.27,84.64c.82.15,1.81,0,2,1.27a5.43,5.43,0,0,1-.93,4.23c-.73,0-1.51.16-1.89-.72,1.28-.22.91-1.19.9-2s0-1.89.05-2.84Z" transform="translate(-31 -35.2)"/><path class="cls-8" d="M713,197.46a5.83,5.83,0,0,0,.67,3,.7.7,0,0,1-.59,1,1.24,1.24,0,0,1-.94-.75c-.14-1.19-.11-2.39-.14-3.59Z" transform="translate(-31 -35.2)"/><path class="cls-7" d="M275,213.55a.94.94,0,0,0-.61-1.15c-.44-2.47,1.3-1.56,2.45-1.59C277.34,212.45,277.77,214.06,275,213.55Z" transform="translate(-31 -35.2)"/><path class="cls-4" d="M154.1,195.62c-.34-.29-.68-.76-.28-1s.54.29.69.61Z" transform="translate(-31 -35.2)"/></svg>